{
	"asset":
	{
		"version": "2.0",
		"generator": "Unreal Engine 5.4.4"
	},
	"scene": 0,
	"accessors": [
		{
			"bufferView": 0,
			"count": 17856,
			"type": "SCALAR",
			"componentType": 5123
		},
		{
			"bufferView": 1,
			"count": 6632,
			"type": "VEC3",
			"componentType": 5126,
			"min": [ -2.38303947, 0.0564095117, -0.542980969 ],
			"max": [ -0.163564444, 1.82384634, 1.71786892 ]
		},
		{
			"bufferView": 2,
			"count": 6632,
			"type": "VEC3",
			"componentType": 5126
		},
		{
			"bufferView": 3,
			"count": 6632,
			"type": "VEC4",
			"componentType": 5126
		},
		{
			"bufferView": 4,
			"count": 6632,
			"type": "VEC2",
			"componentType": 5126
		},
		{
			"bufferView": 5,
			"count": 6632,
			"type": "VEC2",
			"componentType": 5126
		},
		{
			"bufferView": 6,
			"count": 6632,
			"type": "VEC2",
			"componentType": 5126
		},
		{
			"bufferView": 7,
			"count": 17856,
			"type": "SCALAR",
			"componentType": 5123
		},
		{
			"bufferView": 8,
			"count": 6632,
			"type": "VEC3",
			"componentType": 5126,
			"min": [ -1.49191403, 0.0564095117, -1.49911666 ],
			"max": [ 0.833945274, 1.82384634, 0.767309248 ]
		},
		{
			"bufferView": 9,
			"count": 6632,
			"type": "VEC3",
			"componentType": 5126
		},
		{
			"bufferView": 10,
			"count": 6632,
			"type": "VEC4",
			"componentType": 5126
		},
		{
			"bufferView": 11,
			"count": 6632,
			"type": "VEC2",
			"componentType": 5126
		},
		{
			"bufferView": 12,
			"count": 6632,
			"type": "VEC2",
			"componentType": 5126
		},
		{
			"bufferView": 13,
			"count": 6632,
			"type": "VEC2",
			"componentType": 5126
		}
	],
	"buffers": [
		{
			"uri": "beczki3.bin",
			"byteLength": 920320
		}
	],
	"bufferViews": [
		{
			"buffer": 0,
			"byteLength": 35712,
			"target": 34963
		},
		{
			"buffer": 0,
			"byteLength": 79584,
			"byteOffset": 35712,
			"target": 34962
		},
		{
			"buffer": 0,
			"byteLength": 79584,
			"byteOffset": 115296,
			"target": 34962
		},
		{
			"buffer": 0,
			"byteLength": 106112,
			"byteOffset": 194880,
			"target": 34962
		},
		{
			"buffer": 0,
			"byteLength": 53056,
			"byteOffset": 300992,
			"target": 34962
		},
		{
			"buffer": 0,
			"byteLength": 53056,
			"byteOffset": 354048,
			"target": 34962
		},
		{
			"buffer": 0,
			"byteLength": 53056,
			"byteOffset": 407104,
			"target": 34962
		},
		{
			"buffer": 0,
			"byteLength": 35712,
			"byteOffset": 460160,
			"target": 34963
		},
		{
			"buffer": 0,
			"byteLength": 79584,
			"byteOffset": 495872,
			"target": 34962
		},
		{
			"buffer": 0,
			"byteLength": 79584,
			"byteOffset": 575456,
			"target": 34962
		},
		{
			"buffer": 0,
			"byteLength": 106112,
			"byteOffset": 655040,
			"target": 34962
		},
		{
			"buffer": 0,
			"byteLength": 53056,
			"byteOffset": 761152,
			"target": 34962
		},
		{
			"buffer": 0,
			"byteLength": 53056,
			"byteOffset": 814208,
			"target": 34962
		},
		{
			"buffer": 0,
			"byteLength": 53056,
			"byteOffset": 867264,
			"target": 34962
		}
	],
	"images": [
		{
			"uri": "medieval_barrels_texture_0.png"
		},
		{
			"uri": "medieval_barrels_texture_1.png"
		},
		{
			"uri": "medieval_barrels_texture_2.png"
		}
	],
	"materials": [
		{
			"name": "barrel_2_SM_MERGED_StaticMeshActor_UAID_581122BC1080983702_2046590367",
			"pbrMetallicRoughness":
			{
				"baseColorTexture":
				{
					"index": 0
				},
				"metallicFactor": 0,
				"roughnessFactor": 0.89426285
			},
			"doubleSided": true
		},
		{
			"name": "bareel_1_SM_MERGED_StaticMeshActor_UAID_581122BC1080983702_2046590367",
			"pbrMetallicRoughness":
			{
				"baseColorTexture":
				{
					"index": 1
				},
				"metallicFactor": 0,
				"roughnessFactor": 0.89426285
			},
			"normalTexture":
			{
				"index": 2
			},
			"doubleSided": true
		}
	],
	"meshes": [
		{
			"name": "SM_MERGED_StaticMeshActor_UAID_581122BC1080983702_2046590367",
			"primitives": [
				{
					"attributes":
					{
						"POSITION": 1,
						"NORMAL": 2,
						"TANGENT": 3,
						"TEXCOORD_0": 4,
						"TEXCOORD_1": 5,
						"TEXCOORD_2": 6
					},
					"indices": 0,
					"material": 0
				},
				{
					"attributes":
					{
						"POSITION": 8,
						"NORMAL": 9,
						"TANGENT": 10,
						"TEXCOORD_0": 11,
						"TEXCOORD_1": 12,
						"TEXCOORD_2": 13
					},
					"indices": 7,
					"material": 1
				}
			]
		}
	],
	"nodes": [
		{
			"name": "SM_MERGED_StaticMeshActor_UAID_581122BC1080983702_2046590367",
			"translation": [ 5.35221624, 0.200000376, 10.9455624 ],
			"rotation": [ 0, 0.173648193, -0, 0.984807849 ],
			"mesh": 0
		}
	],
	"samplers": [
		{
			"minFilter": 9987,
			"magFilter": 9729
		}
	],
	"scenes": [
		{
			"name": "Untitled",
			"nodes": [ 0 ]
		}
	],
	"textures": [
		{
			"name": "medieval_barrels_texture_0",
			"sampler": 0,
			"source": 0
		},
		{
			"name": "medieval_barrels_texture_1",
			"sampler": 0,
			"source": 1
		},
		{
			"name": "medieval_barrels_texture_2",
			"sampler": 0,
			"source": 2
		}
	]
}